<?xml version="1.0" standalone="no"?><!DOCTYPE svg PUBLIC "-//W3C//DTD SVG 1.1//EN" "http://www.w3.org/Graphics/SVG/1.1/DTD/svg11.dtd"><svg class="icon" width="200px" height="200.00px" viewBox="0 0 1024 1024" version="1.1" xmlns="http://www.w3.org/2000/svg"><path d="M844.9 877.6l-44.5 11.8-36.1-35.6 11.9-43.9 44.5-11.8 36.1 35.6-11.9 43.9z" fill="#83E5D2" /><path d="M794.8 910.3l-51.6-50.9 17.7-65 65.5-17.3L878 828l-17.7 65-65.5 17.3z m-9.4-62.2l20.6 20.3 23.6-6.2 6.2-22.7-20.6-20.3-23.6 6.2-6.2 22.7z"  /><path d="M502.5 569.8l48.5 47.8 55-54.2c-3-26.4 5.8-53.9 26.3-74.2 20.6-20.3 48.4-28.9 75.3-25.9l240.5-237L813.4 93.5l-240.5 237c3 26.4-5.8 53.9-26.3 74.2-20.6 20.3-48.5 28.9-75.3 25.9l-55 54.2 48.5 47.8-237.7 234.2-8.7-8.6-45.6 36.2L96 913.8l19.6 19.3 121.2-75.6 36.7-45-8.7-8.6 237.7-234.1z" fill="#FFFFFF" /><path d="M113 957l-41.1-40.5 86.7-134.9 61.2-48.5 7.3 7.2 210.8-207.7-48.5-47.8 75-73.9 8.9 1c2.7 0.3 5.5 0.4 8.2 0.4 19.6 0 38-7.5 51.8-21.1 15.7-15.5 23.3-36.8 20.8-58.6l-1-9.1L813.4 67 975 226.2 714.5 483l-8.9-1c-2.7-0.3-5.5-0.4-8.2-0.4-19.6 0-38 7.5-51.8 21.1-15.7 15.5-23.3 36.8-20.8 58.6l1 9.1L551 644l-48.5-47.8L291.7 804l7.3 7.2-49.6 60.7L113 957z m73.9-149.8L123.5 906l100.7-62.8 23.9-29.2-10.1-10 264.6-260.7 48.5 47.8 35.6-35.1c-0.8-30 10.8-58.9 32.5-80.3 21.6-21.3 50.6-32.7 81.3-31.9l220.9-217.6-108-106.2-221.1 217.9c0.8 30-10.8 58.8-32.5 80.3-21.6 21.3-50.6 32.7-81.3 31.9l-35.3 34.8 48.5 47.8-264.6 260.5-10-9.9-30.2 23.9z"  /><path d="M314.6 475.4l25.9 25.5 13.3-13.3 87.9-87.9 23.2-23.2-25-24.6c-1.2-1.1-2.4-2.1-3.6-3.2 17.6-62.2 1.6-131.6-48.1-180.5-49.3-48.5-119.1-64.4-181.8-47.7l106.3 104.8-27.9 102.6-104.2 27.5L74.3 250.6c-16.9 61.8-0.8 130.6 48.4 179.2 51.7 51 126.1 65.9 191.2 45 0.3 0.1 0.5 0.3 0.7 0.6z" fill="#FF5A76" /><path d="M340.6 527.5l-32-31.5c-17.3 4.5-35.1 6.8-53.2 6.8-55.1 0-106.9-21.2-145.9-59.6-26.2-25.8-44.9-58.1-54.1-93.3-8.9-34.2-8.7-70.2 0.7-104.3l8.5-31.1 121.6 119.8 83.2-22 22.2-81.5-122-120.2 31.9-8.5c17.6-4.7 35.8-7 54-7 55.1 0 106.9 21.2 145.9 59.6 49.9 49.2 70.8 120.2 55.8 187.8l34.4 33.9-151 151.1z m-12.4-65.2l12.2 12.1 97.7-97.7-11.5-11.3c-0.3-0.3-0.8-0.8-1.4-1.3-0.5-0.4-1-0.8-1.5-1.3l-8.8-7.9 3.2-11.4c16.3-57.7-0.3-119.7-43.1-162-31.9-31.4-74.3-48.7-119.4-48.7-3.1 0-6.3 0.1-9.4 0.3l87.7 86.4-33.7 123.8-125.1 33L87 289.5c-2.6 46.7 14.8 93.1 49 126.8 31.9 31.4 74.3 48.7 119.4 48.7 18 0 35.7-2.8 52.8-8.3l10.8-3.5 8.1 8c0.5 0.4 0.9 0.8 1.1 1.1z"  /><path d="M877.2 782.8L670.9 579.5 555.7 694.6l-0.6-0.6-9.2 9.2L752 906.3c17.3 17 40 25.6 62.7 25.6 22.7 0 45.3-8.5 62.6-25.6 34.5-34.1 34.5-89.4-0.1-123.5z" fill="#FF5A76" /><path d="M814.6 950.7c-28.7 0-55.6-11-75.9-31L519.1 703.3l36-36 0.6 0.6 115-115 219.7 216.5c20.4 20.1 31.6 46.7 31.6 75.2 0 28.4-11.2 55.1-31.6 75.2-20.2 19.9-47.2 30.9-75.8 30.9z m-241.3-247l191.9 189.1c13.2 13 30.7 20.1 49.4 20.1s36.2-7.2 49.4-20.1c13.1-12.9 20.3-30.1 20.3-48.3 0-18.2-7.2-35.4-20.3-48.3L671 606l-97.7 97.7z"  /><path d="M776.9 858.9l-32.4-30.7 10.4-43.3 42.8-12.7 32.4 30.7-10.4 43.4z" fill="#FFFFFF" /><path d="M771.8 880.1l-48.2-45.7 15.5-64.6 63.7-18.9 48.2 45.7-15.5 64.6-63.7 18.9z m-6.4-58.1l16.6 15.7 21.9-6.5 5.3-22.2-16.6-15.7-21.9 6.5-5.3 22.2z"  /></svg>