<?xml version="1.0" standalone="no"?><!DOCTYPE svg PUBLIC "-//W3C//DTD SVG 1.1//EN" "http://www.w3.org/Graphics/SVG/1.1/DTD/svg11.dtd"><svg class="icon" width="200px" height="199.61px" viewBox="0 0 1026 1024" version="1.1" xmlns="http://www.w3.org/2000/svg"><path d="M0.000521 511.91022c0 281.649879 228.999902 509.999781 511.38978 509.999781s511.38978-228.319902 511.389781-509.999781-228.999902-509.999781-511.389781-509.999781S0.000521 230.250341 0.000521 511.91022z m0 0" fill="#37BBEF" /><path d="M686.170226 137.410381a716.149692 716.149692 0 0 1 200.749914 28.519988 510.439781 510.439781 0 0 0-375.539839-163.99993C228.940423 1.940439 0.000521 230.250341 0.000521 511.91022a504.289783 504.289783 0 0 0 10.479996 102.999956c97.829958-278.089881 363.399844-477.499795 675.689709-477.499795z m0 0" fill="#3ED6FF" /><path d="M669.260234 26.800428c136.899941 93.69996 223.179904 231.049901 223.179904 383.999835 0 282.699879-295.159873 511.93978-659.299717 511.939781-8.529996 0-17.189993-0.13-25.569989-0.39a510.099781 510.099781 0 0 0 303.819869 99.569957c282.449879 0 511.38978-228.309902 511.389781-509.999781 0-226.729903-148.299936-418.81982-353.519848-485.109792z m0 0" fill="#3495C6" /><path d="M675.600231 519.010217s-18.999992-11.319995-31.559987-15.139994-6.339997-22.61999-6.339997-22.61999 7.539997 11.319995 29.059988 15.139994 56.899976 8.849996 66.939971 21.42999 11.359995 20.149991 16.379993 25.13999 8.829996 17.679992 8.829996 17.679992-20.849991-3.299999-25.209989-12.639994-8.849996-23.99999-12.669995-20.149992-1.319999 17.639992-15.179993 17.639993-17.699992-12.639995-27.739988-15.139994-2.509999-11.319995-2.509999-11.319995z m-56.769976-261.999887l35.389985-6.329998 17.699992-18.999992-4.999997-17.639992 7.519996-27.649988-10.179995-15.139994s0-28.999988-11.359995-33.999985-7.529997-36.469984-7.529997-36.469984l1.319999-6.319998-12.679994 11.339996 7.519996 32.779985 11.359996 32.779986 1.279999 56.809976-26.499989 16.189993-20.199991 26.469989z m26.539989-64.259973l-7.519997-10.139995-8.849996 1.319999-2.509999 16.319993 8.839996 1.319999z m99.699957 434.499813s-1.339999-22.58999-11.369995-22.58999-13.869994-25.149989-13.869994-25.149989l-20.189992-21.459991s0 31.469986 1.31 36.479985-13.869994 12.569995-17.669993 10.129995-17.689992-23.99999-17.689992-23.99999 5.729998-11.999995-2.509999-11.329995a3.869998 3.869998 0 0 0-1.579999 0.27c-1.999999-0.27-5.409998-0.8-10.999995-1.459999l-26.139989-3.159999-2.899999 10.659996s-15.139993 12.609995-24.01999 16.319993-19.009992 40.289983-30.369987 40.289982-27.729988 1.309999-27.729988 1.31-20.169991 33.939985-13.859994 46.60998a71.549969 71.549969 0 0 1 7.539997 40.289982c-1.319999 15.139993 1.309999 12.639995 22.70999 8.819997s39.209983-32.779986 63.099973-27.649988 31.559986 28.999988 31.559987 28.999987l20.199991-17.649992s-2.499999 12.639995-6.329997 13.829994 3.829998 2.499999 8.849996 11.319995 32.739986 21.339991 68.259971-12.639995 22.70999-62.929973 22.70999-62.929973z m-554.539762-30.159987c2.509999-23.99999-11.349995-17.639992-10.159995-51.619977s48.059979-113.359951 44.229981-113.359952-25.209989 16.339993-32.879986 15.139994-40.399983-75.569968-40.399983-86.849963-8.849996-54.109977-8.849996-54.109977 10.159996 28.999988 17.689992 30.279987 10.169996 32.789986 16.379993 47.92998 26.539989 40.289983 39.209983 39.099983 51.769978-71.749969 51.769978-71.749969L246.000415 339.250294l-22.57999 13.569994s-6.339997-15.149993-13.859994-23.999989-6.339997-30.279987-1.329999-30.279987 10.699995 14.609994 36.589984 31.469986 49.269979 0 54.249977 3.809999 25.209989 20.149991 26.539988 30.279987 26.539989 79.399966 30.369987 84.399963 18.999992-17.649992 25.209989-46.60998 36.579984-42.799982 46.74998-50.429978 8.839996 8.819996 15.179994 23.99999 22.70999 23.99999 30.359987 30.279987 1.309999 26.389989 13.839994 26.389988 22.71999-21.459991 22.71999-21.45999l-8.849996-23.99999c-8.849996-23.99999 3.829998-26.459989 15.189993-31.469987s31.549986-23.99999 45.409981-45.27998-11.359995-41.609982-18.999992-60.429974 8.849996-17.639992 17.689992-18.999992 17.689992 49.139979 17.689993 49.139979l16.369993-8.819996a165.509929 165.509929 0 0 0-11.369995-31.479987c-7.519997-15.079994 10.169996-15.079994 31.569986-37.779984s9.249996-33.449986 10.169996-61.709973-26.539989-25.139989-26.539989-25.139989-6.339997 10.129996 1.309999-25.139989 59.419974-15.139993 71.999969-16.349993c9.899996-1.06 22.30999-25.419989 27.069989-35.819985A505.579783 505.579783 0 0 0 507.270303 0.00044C237.390419 0.00044 16.900514 210.920349 2.77052 476.660235a83.599964 83.599964 0 0 0 23.39999 8.589996c20.199991 3.809998 11.349995 35.279985 12.669994 51.609978s4.999998 33.999985 12.679995 50.429979-2.549999 26.439989-6.349997 37.769983 4.999998 28.999988 12.669994 28.999988-13.859994 39.109983 10.169996 79.399966 59.409974-3.819998 75.769967-61.709974c16.529993-58.299975 44.249981-50.669978 46.76998-74.619968z m325.99986-109.699952l10.159996 20.119991 21.479991 10.139996s7.529997-30.289987 20.199991-45.289981-7.529997-28.999988-16.379993-31.469986z m210.17991-345.219852a11.879995 11.879995 0 0 0 3.679998 3.819998c1.499999 1-1.479999-1.429999-3.689998-3.799998zM575.000274 549.950204c-6.599997-1.999999-17.289993-4.999998-33.229986-9.479996-40.409983-11.319995-30.369987-7.509997-44.229981-16.329993s-1.319999-12.639995 1.32-23.99999-12.689995-47.889979-12.689995-47.889979l-15.179993-12.629995-3.819999 22.62999-16.379993 4.999998 20.209992 47.99998s34.069985 28.999988 55.589976 39.109983c12.759995 5.899997 33.619986 0.78 48.409979-4.359998zM209.530431 685.300146s20.199991-36.479984 24.06999-54.109977-2.509999-45.289981-2.509999-45.289981-26.539989 20.149991-21.519991 22.649991-7.539997 13.829994-10.169996 33.999985 10.129996 42.769982 10.129996 42.769982zM717.980213 45.55042c-11.089995 13.559994-25.999989 33.049986-25.999989 40.159983 0 11.319995 17.689992 11.319995 18.999992 20.149992 0.93 6.849997 11.349995 27.769988 15.709993 36.469984-1-3.289999-1.589999-8.559996 1.999999-14.999994 6.339997-11.329995 7.529997-37.789984 1.319999-49.139979-2.999999-5.389998 0.79-15.139993 5.539998-24.089989-5.789998-2.999999-11.609995-5.999997-17.539992-8.549997zM586.610269 546.640205c3.559998-2.129999 5.729998-3.669998 5.729998-3.669998a46.42998 46.42998 0 0 0-5.729998 3.669998z m-4.489998 4.999998c-3.699998-1.449999 0.4-4.209998 4.489998-6.309997-2.999999 1.309999-6.999997 2.889999-11.619995 4.479998 10.179996 3.159999 10.999995 3.399999 7.139997 1.849999z m0 0" fill="#E8EEEF" /></svg>