<?xml version="1.0" standalone="no"?><!DOCTYPE svg PUBLIC "-//W3C//DTD SVG 1.1//EN" "http://www.w3.org/Graphics/SVG/1.1/DTD/svg11.dtd"><svg class="icon" width="200px" height="200.00px" viewBox="0 0 1024 1024" version="1.1" xmlns="http://www.w3.org/2000/svg"><path d="M512.191795 0C355.519795 0 229.567795 126.464 229.567795 282.624c0 156.672 126.464 282.624 282.624 282.624 156.672 0 282.624-126.464 282.624-282.624C794.815795 126.464 668.863795 0 512.191795 0z m0 447.488c-90.624 0-164.864-74.24-164.864-164.864C347.327795 192 421.567795 117.76 512.191795 117.76c90.624 0 164.864 74.24 164.864 164.864 0 90.624-74.24 164.864-164.864 164.864zM203.455795 702.976H68.799795c-37.376 0-71.68-30.208-68.608-66.048 0-35.84 31.232-62.976 68.608-62.976h134.656c37.376 0 71.68 30.208 68.608 66.048-3.072 35.328-31.232 62.976-68.608 62.976zM841.407795 1024H183.487795c-37.376 0-71.68-30.208-68.608-66.048 0-35.84 31.232-62.976 68.608-62.976h657.92c37.376 0 71.68 30.208 68.608 66.048-3.072 35.328-31.744 62.976-68.608 62.976z" fill="#FDC131" /><path d="M117.439795 974.336L3.263795 658.944c-11.264-35.84 11.264-74.24 48.64-82.432 37.376-8.192 71.68 10.752 82.944 46.592l114.176 315.904c11.264 35.84-11.264 74.24-48.64 82.432-36.864 8.192-74.24-13.824-82.944-47.104z" fill="#FDC131" /><path d="M114.879795 957.952v10.752l3.072 5.632c5.632 24.576 28.672 44.032 54.272 46.592h28.672c37.376-8.192 59.904-46.592 48.64-82.432l-17.408-44.032h-48.64c-37.376 0.512-68.608 28.16-68.608 63.488z m19.968-334.848c-8.704-30.208-37.376-49.664-68.608-49.664h-14.336c-3.072 0-5.632 2.56-8.704 2.56h-2.56c-3.072 0-5.632 2.56-8.704 2.56s-3.072 2.56-5.632 2.56-3.072 2.56-3.072 2.56c0 8.192-3.072 8.192-5.632 10.752-8.704 8.192-14.336 22.016-17.408 32.768v19.456c0 2.56 0 8.192 3.072 10.752v5.632c11.264 22.016 37.376 38.4 65.536 38.4h94.208l-28.16-78.336z" fill="#F06734" /><path d="M752.319795 636.928c0-35.84 31.232-66.048 68.608-66.048h134.656c37.376 0 65.536 27.648 68.608 62.976 0 35.84-31.232 66.048-68.608 66.048h-134.656c-36.864 0-65.536-27.136-68.608-62.976z" fill="#FDC131" /><path d="M823.999795 1018.368c-37.376-8.192-57.344-46.592-48.64-82.432l114.176-315.904c11.264-32.768 45.568-54.784 82.944-46.592 37.376 8.192 57.344 46.592 48.64 82.432l-114.176 315.904c-8.704 35.84-45.568 57.856-82.944 46.592z" fill="#FDC131" /><path d="M841.407795 894.976h-51.712l-14.336 40.96c-8.704 35.84 11.264 74.24 48.64 82.432 37.376 10.752 74.24-10.752 82.944-46.592l3.072-5.632v-8.192c2.56-32.768-31.744-62.976-68.608-62.976z m174.08-290.816c-2.56 0-2.56 0 0 0-3.072-2.56-3.072-5.632-5.632-8.192-3.072-2.56-3.072-5.632-5.632-5.632-8.704-8.192-19.968-13.824-34.304-16.384h-11.264c-31.232 0-57.344 19.456-68.608 49.664l-28.672 79.36h94.208c31.232 0 59.904-22.016 65.536-52.224 3.072-16.384 0-33.28-5.632-46.592z" fill="#F06734" /></svg>