<svg t="1617792191310" class="icon" viewBox="0 0 1024 1024" version="1.1" xmlns="http://www.w3.org/2000/svg" p-id="4737" data-spm-anchor-id="a313x.7781069.0.i13" width="200" height="200"><path d="M512 754.496a44.992 44.992 0 0 1-32.832-14.08c-18.816-18.816-18.816-48.512 0-65.728L640.256 512 479.168 350.848c-18.816-18.752-18.816-48.512 0-65.728 18.752-18.752 48.448-18.752 65.664 0l195.584 195.584c18.752 18.752 18.752 48.512 0 65.728l-195.584 193.92a44.992 44.992 0 0 1-32.832 14.08z" fill="#2c2c2c" p-id="4738" data-spm-anchor-id="a313x.7781069.0.i16" class="selected"></path><path d="M707.584 558.912H318.016A46.08 46.08 0 0 1 271.04 512a46.08 46.08 0 0 1 46.976-46.912h389.568a46.08 46.08 0 0 1 46.912 46.912 47.04 47.04 0 0 1-46.912 46.912z" fill="#2c2c2c" p-id="4739" data-spm-anchor-id="a313x.7781069.0.i15" class="selected"></path><path d="M512 981.312C253.888 981.312 42.688 770.112 42.688 512S253.888 42.688 512 42.688s469.312 211.2 469.312 469.312-211.2 469.312-469.312 469.312z m0-844.8c-206.528 0-375.488 168.96-375.488 375.488S305.472 887.488 512 887.488s375.488-168.96 375.488-375.488S718.528 136.512 512 136.512z" fill="#2c2c2c" p-id="4740" data-spm-anchor-id="a313x.7781069.0.i14" class="selected"></path></svg>