<svg t="1593761739112" class="icon" viewBox="0 0 1024 1024" version="1.1" xmlns="http://www.w3.org/2000/svg" p-id="14380" width="200" height="200"><path d="M511.33 960A448.75 448.75 0 0 1 336.69 98a445.85 445.85 0 0 1 174.64-35.28 453.53 453.53 0 0 1 69 5.27 445.82 445.82 0 0 1 119.84 36.27 32 32 0 1 1-27 58 381.83 381.83 0 0 0-102.64-31.07 389.28 389.28 0 0 0-59.19-4.52A384.6 384.6 0 1 0 870 650.5a32 32 0 1 1 59.66 23.16A448.79 448.79 0 0 1 511.33 960zM937.25 552.1a32 32 0 0 1-32-32 390.4 390.4 0 0 0-3-48.68A384.49 384.49 0 0 0 780 236.11a32 32 0 1 1 43.18-47.24A448.55 448.55 0 0 1 965.7 463.42a454.45 454.45 0 0 1 3.55 56.69 32 32 0 0 1-32 31.99z" fill="#15CE2B" p-id="14381"></path><path d="M512.57 458.68l-159.64-212.2a1.66 1.66 0 0 1 0.56-2.54s97.86-52.23 157.69-52.23c59.41 0 156.75 51.53 156.75 51.53a1.66 1.66 0 0 1 0.57 2.54s-108.4 144.67-155.93 212.9M512.53 565.32l159.64 212.2a1.66 1.66 0 0 1-0.56 2.54s-97.86 52.23-157.69 52.23c-59.41 0-156.75-51.53-156.75-51.53a1.66 1.66 0 0 1-0.57-2.54S465 633.55 512.53 565.32M458.59 512.05l-212.2 159.64a1.66 1.66 0 0 1-2.54-0.56s-52.23-97.86-52.23-157.69c0-59.41 51.53-156.75 51.53-156.75a1.66 1.66 0 0 1 2.54-0.57s144.67 108.4 212.9 155.94M565.41 513.09l212.2-159.64a1.66 1.66 0 0 1 2.54 0.56s52.23 97.86 52.23 157.69c0 59.41-51.53 156.75-51.53 156.75a1.66 1.66 0 0 1-2.54 0.57s-144.67-108.4-212.9-155.94" fill="#FFE000" p-id="14382"></path></svg>