<svg t="1592965322800" class="icon" viewBox="0 0 1024 1024" version="1.1" xmlns="http://www.w3.org/2000/svg" p-id="2284" width="200" height="200"><path d="M425.89297778 90.30011259c60.09893925-11.67511703 122.68581925-10.40080592 182.26289777 3.71370666 52.19821037 12.35474963 101.99343408 34.67339852 145.98750815 65.34181927 79.11651555 54.78324148 139.03341037 136.76392297 166.65562075 228.98763851 24.78231703 81.51950222 24.35754667 170.30864592-0.49758815 251.75533038l-0.15777185 0.55826962c-27.92561778-64.94132148-90.76736-113.28018963-160.52679112-124.39703703l-0.0121363-0.13349925c0.57040592-49.17627259-13.51983408-98.44963555-40.47454814-139.6402252-27.61007408-42.5984-68.41230222-76.53148445-115.41617778-95.74324147-48.47236741-20.01275259-103.27988148-24.07841185-154.24018963-11.79648-47.56214518 11.31102815-91.44699259 37.12493037-124.76112593 72.86632295-34.96466963 37.29483852-58.13285925 85.50020741-65.11122963 136.16924445-7.63373037 53.56961185 2.52434963 109.55434667 28.88438519 156.83735704 23.5808237 42.67121778 59.88048592 78.15774815 103.02501926 100.82834963 36.70016 19.43021037 78.31552 29.24847408 119.80951704 28.8115674h0.13349926c8.99299555 56.7007763 42.48917333 108.8018963 89.72363851 141.2786252 10.92266667 7.41527703 22.30651259 14.50287408 34.64912593 19.23602962l-0.67963259 0.19418074c-84.26230518 25.75322075-176.42533925 25.2192237-260.2021926-2.20880593-92.10235259-29.70965333-173.20922075-91.78680889-226.32978962-172.63881481-28.43534222-42.95035259-48.99422815-91.07076741-60.39021038-141.30289778-14.01742222-61.82229333-14.26014815-126.72720592-0.6432237-188.64658962 17.7068563-81.48309333 60.08680297-157.31067259 119.84592593-215.43139556 59.57707852-58.39985778 136.48478815-98.93508741 218.46546963-114.63945482z" fill="#5C5CEF" p-id="2285"></path><path d="M614.44247703 542.99610075c43.21735111-25.74108445 95.60974222-35.13457778 145.16224-26.86976l0.0121363 0.13349925c-0.6674963 45.36547555-13.47128889 90.70667852-37.6953363 129.16660148-20.0006163 32.44032-47.57428148 60.17175703-79.84469333 80.41509927-38.77546667 24.78231703-84.67493925 37.97447111-130.62295703 38.6176948h-0.13349926c-6.40796445-38.50846815-2.35444148-78.76456297 12.08775111-115.06422518 17.42772148-44.26107259 50.03794963-82.28408889 91.03435851-106.39890962z m305.70116742 97.66077628l0.15777185-0.55826962c14.63637333 32.7801363 21.04433778 69.16475259 18.26512592 104.96682667-3.68943408 51.42148741-26.83335111 101.07107555-63.69128297 137.09160295-21.04433778 20.68024889-46.32424297 37.13706667-73.93431703 47.61069038-52.96279703 20.68024889-113.99623111 18.62921482-165.7939437-4.5996563l0.67963259-0.19418074c45.35333925-14.30869333 88.55855408-35.64430222 126.84856889-63.93400889 14.4057837-10.95907555 28.90865778-21.97883259 41.54254222-35.01321481 3.6166163-3.64088889 8.03422815-6.43223703 11.28675556-10.44935112 5.48560592-7.05118815 12.54893037-12.65815703 18.0102637-19.73361777 39.34587259-44.9042963 68.8006637-98.24331852 86.62888297-155.18682075z" fill="#19FFDC" p-id="2286"></path><path d="M759.61685333 516.25984c69.75943111 11.11684741 132.60117333 59.45571555 160.52679112 124.39703703-17.82821925 56.94350222-47.28301037 110.28252445-86.62888297 155.18682075-5.46133333 7.07546075-12.52465778 12.68242963-18.0102637 19.73361777-3.25252741 4.01711408-7.67013925 6.80846222-11.28675556 10.44935112-12.63388445 13.03438222-27.13675852 24.05413925-41.54254222 35.01321481-38.29001482 28.28970667-81.49522963 49.62531555-126.84856889 63.93400889-12.34261333-4.73315555-23.72645925-11.82075259-34.64912593-19.23602962-47.23446518-32.47672889-80.73064297-84.57784889-89.72363851-141.2786252 45.94801778-0.6432237 91.84749037-13.83537778 130.62295703-38.6176948 32.27041185-20.24334222 59.84407703-47.97477925 79.84469333-80.41509927 24.22404741-38.45992297 37.02784-83.80112592 37.6953363-129.16660148z" fill="#09EFDA" p-id="2287"></path></svg>