<svg t="1593657447554" class="icon" viewBox="0 0 1176 1024" version="1.1" xmlns="http://www.w3.org/2000/svg" p-id="1475" width="200" height="200"><path d="M683.594 0s-0.696 0.695 0 0zM0 646.041a7.302 7.302 0 0 1 0 3.825 5.563 5.563 0 0 0 0-3.825z m923.86 11.822a79.625 79.625 0 0 1 79.625 79.278 73.019 73.019 0 0 1-14.951 45.55 493.745 493.745 0 1 0-852.232-8.345 76.148 76.148 0 0 1-9.736-37.205 78.93 78.93 0 0 1 146.732-40.334A334.495 334.495 0 1 1 899.173 530.95a331.366 331.366 0 0 1-44.854 167.248 81.016 81.016 0 0 1 69.541-40.335z" fill="#28B75A" p-id="1476"></path><path d="M277.819 699.936a12.17 12.17 0 0 0-2.087-3.13s0.696 2.087 2.087 3.13z" fill="#28B75A" p-id="1477"></path><path d="M1003.485 737.836a79.277 79.277 0 0 0-148.123-38.943 333.8 333.8 0 0 1-577.196 1.739 78.93 78.93 0 0 0-148.47 37.204 76.148 76.148 0 0 0 13.907 44.855 492.007 492.007 0 0 0 846.322 0 77.539 77.539 0 0 0 13.56-44.855z m-810.16 77.887a90.056 90.056 0 0 0 14.257 0 99.097 99.097 0 0 1-14.256 0z m-24.339-9.736l5.216 3.13z m10.431 5.911a62.24 62.24 0 0 0 12.17 3.825z m107.79-87.622a89.709 89.709 0 0 1 0 13.56 94.577 94.577 0 0 0-1.043-13.56z m-3.13-9.388v4.172a9.736 9.736 0 0 0-1.043-4.172z m562.94 9.388a89.709 89.709 0 0 0 0 13.56 46.245 46.245 0 0 1-1.043-13.56z m2.434-11.127a20.515 20.515 0 0 0 0 5.911 47.288 47.288 0 0 0-1.044-5.91z m89.36 102.574a94.229 94.229 0 0 1-13.908 0 81.711 81.711 0 0 0 12.865 0z m40.335-20.167l-8.693 7.302a57.024 57.024 0 0 0 7.65-7.302z m-11.822 9.736l-8.693 5.215a38.248 38.248 0 0 1 7.65-5.215z m-12.518 5.91a73.714 73.714 0 0 1-12.517 3.478 39.639 39.639 0 0 0 11.474-3.477z m28.164-19.47a73.714 73.714 0 0 0 6.955-8.346 88.318 88.318 0 0 1-7.998 6.954z" fill="#F8B616" p-id="1478"></path><path d="M852.928 720.799a79.277 79.277 0 1 0 81.016-78.582 79.277 79.277 0 0 0-81.016 78.582" fill="#289349" p-id="1479"></path><path d="M844.583 737.836a79.277 79.277 0 1 0 79.277-79.277 79.277 79.277 0 0 0-79.277 79.277" fill="#F8B616" p-id="1480"></path><path d="M120.307 720.799a79.277 79.277 0 1 0 79.277-79.278 79.277 79.277 0 0 0-79.277 79.278" fill="#289349" p-id="1481"></path><path d="M128.304 737.836a79.277 79.277 0 1 0 79.278-79.277 79.277 79.277 0 0 0-79.278 79.277m889.437 207.234a79.277 79.277 0 1 0 39.639-69.541 79.973 79.973 0 0 0-39.639 69.541" fill="#F8B616" p-id="1482"></path></svg>