<svg t="1592965337303" class="icon" viewBox="0 0 1024 1024" version="1.1" xmlns="http://www.w3.org/2000/svg" p-id="2416" width="200" height="200"><path d="M511.955 913.625c-226.44 0-409.995-177.975-409.995-397.44 0-219.6 183.555-397.575 409.95-397.575 226.485 0 410.04 177.975 410.04 397.575a388.71 388.71 0 0 1-96.3 255.87l32.58 22.725A426.555 426.555 0 0 0 962 516.185C961.91 275.12 760.4 79.775 511.955 79.775 263.375 79.775 62 275.12 62 516.05c0 241.065 201.375 436.41 449.955 436.41 58.95 0.09 117.36-11.115 171.765-32.985l-20.295-33.93a421.47 421.47 0 0 1-151.47 28.08z m189.315 8.505l20.295 33.93a450.9 450.9 0 0 0 174.51-124.695l-32.58-22.725a411.75 411.75 0 0 1-162.225 113.49z" fill="#FA4D23" p-id="2417"></path><path d="M513.395 676.475s-160.515 1.125-247.95-78.21l-6.885 110.88s528.3 186.75 533.025-113.175c0 0 11.25-71.28-180-120.24 0 0-75.51-17.865-160.56-65.385 0 0-46.755-52.515 86.85-42.03 158.4 12.42 238.95 52.515 238.95 52.515v-98.1s-358.74-131.94-499.995 18.63c0 0-46.485 68.85 1.485 112.05 47.925 43.2 145.575 98.1 276.21 130.815 0 0 168.435 74.7-41.13 92.25z" fill="#FA4D23" p-id="2418"></path></svg>