<svg t="1593761715817" class="icon" viewBox="0 0 1024 1024" version="1.1" xmlns="http://www.w3.org/2000/svg" p-id="14248" width="200" height="200"><path d="M502.857143 502.857143m-393.142857 0a393.142857 393.142857 0 1 0 786.285714 0 393.142857 393.142857 0 1 0-786.285714 0Z" p-id="14249"></path><path d="M500.90395785 500.90395785m-454.93773563 0a454.93773563 454.93773563 0 1 0 909.87547125 0 454.93773563 454.93773563 0 1 0-909.87547125 0Z" fill="#e6e6e6" p-id="14250"></path><path d="M794.34989326 312.87042473L550.39230681 551.50191017v296.64159577c0 5.3260998-23.16853673 9.60917231-49.5105414 9.98643879-25.29897616-0.37726527-49.48834896-4.66033778-49.48834895-9.98643879V551.47971894L207.43583001 312.87042473c-3.90580724-3.90580724 8.54395259-22.41400498 27.78448964-41.65454325s38.10380883-31.71248932 41.65454325-27.78448964l223.65182968 218.30353623 223.65182848-218.30353623c3.90580724-3.92799846 22.41400498 8.54395259 41.65454324 27.78448964s32.04536972 37.72654356 28.49463652 41.65454325z" fill="#EC1C24" p-id="14251"></path></svg>