<?xml version="1.0" standalone="no"?><!DOCTYPE svg PUBLIC "-//W3C//DTD SVG 1.1//EN" "http://www.w3.org/Graphics/SVG/1.1/DTD/svg11.dtd"><svg t="1582641436124" class="icon" viewBox="0 0 1024 1024" version="1.1" xmlns="http://www.w3.org/2000/svg" p-id="1799" xmlns:xlink="http://www.w3.org/1999/xlink" width="32" height="32"><defs><style type="text/css"></style></defs><path d="M529.075 831.457H240.793c-8.832-0.01-15.986-14.331-15.974-31.99 0.005-17.644 7.153-31.939 15.974-31.949h288.282c8.832 0 15.985 14.31 15.986 31.969 0.005 17.654-7.152 31.969-15.986 31.969z m0-287.549h-288.27c-8.832 0-15.985-14.316-15.986-31.969 0-17.659 7.152-31.969 15.986-31.969h288.27c8.828 0 15.985 14.31 15.986 31.969 0.005 17.654-7.152 31.969-15.986 31.969z m0-287.55h-288.27c-8.832 0-15.986-14.321-15.986-31.969 0-17.659 7.152-31.969 15.986-31.969h288.27c8.828 0 15.985 14.31 15.986 31.969 0.005 17.649-7.152 31.969-15.986 31.969z m259.594 279.68L654.33 625.515c-19.149 12.764-44.809-0.973-44.81-23.991V422.483c0-23.025 25.646-36.762 44.82-23.987l134.354 89.564c17.111 11.418 17.101 36.577-0.025 47.98z" fill="#707070" p-id="1800"></path></svg>