<svg t="1593163164639" class="icon" viewBox="0 0 1031 1024" version="1.1" xmlns="http://www.w3.org/2000/svg" p-id="15871" width="200" height="200"><path d="M1016.685714 928.914286l-190.171428-182.857143c73.142857-80.457143 109.714286-190.171429 109.714285-292.571429 0-248.685714-212.114286-453.485714-468.114285-453.485714-256 0-468.114286 204.8-468.114286 453.485714 0 248.685714 212.114286 453.485714 468.114286 453.485715 51.2 0 102.4-7.314286 153.6-21.942858 29.257143-7.314286 43.885714-43.885714 36.571428-73.142857-7.314286-14.628571-14.628571-21.942857-29.257143-29.257143-14.628571-7.314286-29.257143-7.314286-43.885714 0-36.571429 14.628571-73.142857 21.942857-117.028571 21.942858-197.485714 0-351.085714-153.6-351.085715-343.771429s160.914286-343.771429 351.085715-343.771429c197.485714 0 351.085714 153.6 351.085714 343.771429 0 95.085714-43.885714 190.171429-117.028571 256-7.314286 7.314286-14.628571 21.942857-14.628572 29.257143v14.628571c0 14.628571 7.314286 21.942857 14.628572 29.257143l226.742857 219.428572c7.314286 7.314286 21.942857 14.628571 36.571428 14.628571s29.257143-7.314286 36.571429-14.628571c36.571429-21.942857 36.571429-58.514286 14.628571-80.457143" fill="#1777ff" p-id="15872"></path><path d="M490.057143 482.742857m-416.914286 0a416.914286 416.914286 0 1 0 833.828572 0 416.914286 416.914286 0 1 0-833.828572 0Z" fill="#1777ff" p-id="15873"></path><path d="M241.371429 321.828571h358.4c21.942857 0 43.885714 21.942857 43.885714 43.885715s-21.942857 43.885714-43.885714 43.885714h-358.4c-21.942857 0-43.885714-21.942857-43.885715-43.885714s21.942857-43.885714 43.885715-43.885715zM241.371429 512h234.057142c21.942857 0 43.885714 21.942857 43.885715 43.885714s-21.942857 43.885714-43.885715 43.885715h-234.057142c-21.942857 0-43.885714-21.942857-43.885715-43.885715s21.942857-43.885714 43.885715-43.885714z" fill="#FFFFFF" p-id="15874"></path></svg>