<?xml version="1.0" standalone="no"?><!DOCTYPE svg PUBLIC "-//W3C//DTD SVG 1.1//EN" "http://www.w3.org/Graphics/SVG/1.1/DTD/svg11.dtd"><svg t="1582641428290" class="icon" viewBox="0 0 1024 1024" version="1.1" xmlns="http://www.w3.org/2000/svg" p-id="1665" xmlns:xlink="http://www.w3.org/1999/xlink" width="32" height="32"><defs><style type="text/css"></style></defs><path d="M130.841 247.148h334.113c16.568 0 30-13.432 30-30s-13.432-30-30-30H130.841c-16.568 0-30 13.432-30 30s13.432 30 30 30zM940.336 479.59H139.023c-16.568 0-30 13.432-30 30s13.432 30 30 30h801.313c16.568 0 30-13.432 30-30s-13.432-30-30-30zM654.5 771.846H130.842c-16.569 0-30 13.432-30 30s13.431 30 30 30H654.5c16.568 0 30-13.432 30-30s-13.432-30-30-30z" fill="#707070" p-id="1666"></path></svg>