<?xml version="1.0" standalone="no"?><!DOCTYPE svg PUBLIC "-//W3C//DTD SVG 1.1//EN" "http://www.w3.org/Graphics/SVG/1.1/DTD/svg11.dtd"><svg t="1582677838607" class="icon" viewBox="0 0 1163 1024" version="1.1" xmlns="http://www.w3.org/2000/svg" p-id="9276" width="36.34375" height="32" xmlns:xlink="http://www.w3.org/1999/xlink"><defs><style type="text/css"></style></defs><path d="M167.501484 262.982647c-37.915347 0.027347-68.645982 29.987703-68.674849 66.955015v570.747822c0.030386 36.961234 30.759501 66.927668 68.673329 66.955015h682.92292c37.90927-0.027347 68.644463-29.99378 68.67181-66.955015V329.937662c-0.027347-36.967312-30.76254-66.927668-68.67181-66.955015H167.499964zM850.421365 1024h-682.919881c-69.831027-0.060772-126.416902-55.238267-126.480712-123.314516V329.937662c0.06381-68.076249 56.649685-123.252226 126.480712-123.314517h682.919881c69.831027 0.060772 126.416902 55.238267 126.480712 123.314517v570.747822c-0.06381 68.076249-56.649685 123.252226-126.480712 123.314516z" fill="#00BE6E" p-id="9277"></path><path d="M313.029507 595.560831c-68.803988 0.033424-124.604392-54.355561-124.637816-121.486813-0.033424-67.126694 55.719881-121.565816 124.525389-121.599241 68.803988-0.027347 124.604392 54.360119 124.637816 121.486814V474.017804c-0.062291 67.082635-55.76546 121.453389-124.525389 121.543027z" fill="#00BE6E" p-id="9278"></path><path d="M182.299347 860.302813l1.917341-4.37403c17.752878-40.496617 43.412131-77.228439 75.573935-108.173293 28.902932-27.218042 62.397151-47.737543 100.520641-58.750861 46.794065-13.521662 98.256902-11.971988 154.307988 7.344237 32.480855 11.197151 61.137662 9.854101 87.716083-4.026112 28.109864-14.585163 53.342196-42.790742 74.847715-80.140914 15.952522-27.702694 28.861911-59.145875 35.040855-81.638932l1.189602-4.32997 64.007597 16.551121-1.227585 4.462149c-0.208142 0.753567-0.44819 1.602849-0.779394 2.737756a295.864593 295.864593 0 0 1-1.704641 5.615288 416.465662 416.465662 0 0 1-6.312641 18.507965c-6.821602 18.615834-15.18832 37.856095-25.197389 56.848712-28.311929 53.718979-64.334243 95.693864-108.966362 118.732344-43.319454 22.401899-90.771371 25.012036-140.534125 7.82889-71.672404-24.794777-134.374932-12.354849-186.684012 36.923252-25.524036 24.498516-46.007074 53.554896-60.336997 85.589081l-1.762373 3.941032-61.616238-23.647715z" fill="#00BE6E" p-id="9279"></path><path d="M299.73422 787.814552c54.849329-51.670979 121.117626-64.818896 195.942552-38.93327 47.454955 16.387039 92.318006 13.918196 133.372201-7.312332 42.704142-22.043347 77.565721-62.666065 105.086101-114.882469 9.807003-18.611276 18.014196-37.480831 24.702101-55.735074a407.386398 407.386398 0 0 0 6.174386-18.100796c0.401092-1.276202 0.76876-2.47492 1.104522-3.594635l-46.33676-11.979584c-6.756273 22.789318-19.340534 52.786136-34.695976 79.454196-22.298588 38.725128-48.627846 68.158291-78.539584 83.677816-28.874065 15.080451-60.127335 16.545045-94.894718 4.557863-54.288712-18.70851-103.832688-20.198932-148.808167-7.204463-36.626991 10.58184-68.890588 30.347774-96.764961 56.594991-30.112285 28.972819-54.379869 63.191739-71.558457 100.871597l44.633638 17.12997c14.705187-31.557128 35.229246-60.210896 60.583122-84.54381z" fill="#EDFEF4" p-id="9280"></path><path d="M313.789151 405.706065c-37.338018-0.027347-67.631098 29.861602-67.664522 66.763585-0.033424 36.903501 30.212558 66.848665 67.552095 66.877531 37.338018 0.033424 67.631098-29.861602 67.664522-66.763585v-0.056213c0-36.892866-30.224712-66.81524-67.552095-66.877531v0.056213z" fill="#EDFEF4" p-id="9281"></path><path d="M1122.753709 790.029674h-57.185994V218.616404c-0.097234-89.528593-73.639881-162.08978-164.411252-162.214362H129.139466V0h772.016997C1023.501674 0.158006 1122.627608 97.948487 1122.753709 218.616404V790.029674z" fill="#00BE6E" p-id="9282"></path></svg>