<?xml version="1.0" standalone="no"?><!DOCTYPE svg PUBLIC "-//W3C//DTD SVG 1.1//EN" "http://www.w3.org/Graphics/SVG/1.1/DTD/svg11.dtd"><svg t="1582680707429" class="icon" viewBox="0 0 1024 1024" version="1.1" xmlns="http://www.w3.org/2000/svg" p-id="9554" width="32" height="32" xmlns:xlink="http://www.w3.org/1999/xlink"><defs><style type="text/css"></style></defs><path d="M667.494 894.157A264.14 264.14 0 1 1 931.84 630.016a264.397 264.397 0 0 1-264.346 264.14z m0-475.443a211.354 211.354 0 1 0 211.303 211.302 211.558 211.558 0 0 0-211.303-211.302z" fill="#FD5C3F" p-id="9555"></path><path d="M773.12 656.435H641.075V524.34h52.839v79.258h79.206v52.838zM86.323 843.008h316.98v52.838H86.322z m0-107.315h264.141v52.838H86.324z" fill="#FD5C3F" p-id="9556"></path><path d="M86.323 101.734h52.839v660.378H86.323z" fill="#FD5C3F" p-id="9557"></path><path d="M112.742 101.734h792.474v52.839H112.742z" fill="#FD5C3F" p-id="9558"></path><path d="M878.797 101.734h52.838v264.141h-52.838zM165.58 48.896h52.838v79.258h-52.838z m158.515 0h52.838v79.258h-52.838z m158.464 0h52.838v79.258H482.56z m158.515 0h52.839v79.258h-52.839z m158.464 0h52.839v79.258h-52.839zM192 630.016h52.838v52.838H192z m105.677-211.302h52.838v52.838h-52.838z m-105.677 0h52.838v52.838H192z m105.677-105.677h52.838v52.838h-52.838zM403.354 207.36h52.838v52.838h-52.838z m105.625 0h52.839v52.838h-52.839zM297.677 524.34h52.838v52.838h-52.838z" fill="#FD5C3F" p-id="9559"></path></svg>